<?xml version="1.0" encoding="utf-8"?>
<!-- Generator: Adobe Illustrator 23.0.2, SVG Export Plug-In . SVG Version: 6.00 Build 0)  -->
<svg version="1.1" id="Layer_1" focusable="false" xmlns="http://www.w3.org/2000/svg" xmlns:xlink="http://www.w3.org/1999/xlink"
	 x="0px" y="0px" viewBox="0 0 512 512" style="enable-background:new 0 0 512 512;" xml:space="preserve">
<style type="text/css">
	.st0{fill:#0E58A2;}
</style>
<path class="st0" d="M288,39.1v16.7c0,10.8,7.3,20.2,17.7,23.1C383.2,100.4,440,171.5,440,256c0,101.7-82.3,184-184,184
	c-101.7,0-184-82.3-184-184c0-84.5,56.8-155.6,134.3-177.2c10.4-2.9,17.7-12.3,17.7-23.1V39.1c0-15.7-14.8-27.2-30-23.2
	C86.6,43.5,7.4,141.2,8,257.3c0.7,137.1,111.5,247,248.5,246.7C393.3,503.7,504,392.8,504,256c0-115.6-79.1-212.8-186.2-240.2
	C302.7,11.9,288,23.5,288,39.1z"/>
</svg>
